<svg width="1350" height="1350" viewBox="0 0 1350 1350" fill="none" xmlns="http://www.w3.org/2000/svg">
<g clip-path="url(#clip0_2011_3260)">
<rect width="1350" height="1350" fill="#EEB471"/>
<path d="M0 0V22.2857H396.066V192.771C370.848 138.543 322.638 111.429 251.435 111.429C192.841 111.429 146.485 132.6 112.367 174.943C78.2489 216.543 61.1899 268.543 61.1899 330.943C61.1899 393.343 77.5073 443.857 110.142 482.486C142.776 521.114 186.166 540.429 240.31 540.429C321.5 539 362.5 527 396.066 498.5V473.5C390.132 476.471 359.352 496.6 323.75 495.857C288.149 495.114 262.56 478.771 246.985 446.829C230.668 414.886 222.509 375.886 222.509 329.829C222.509 283.771 231.038 246.257 248.097 217.286C264.415 187.571 285.182 173.086 310.4 173.829C359.352 173.829 387.907 202.8 396.066 260.743V624H474.5V0H0Z" fill="#315CA7"/>
<path d="M1349.5 748.286V726H875V1350H953.434V986.743C961.593 928.8 990.148 899.829 1039.1 899.829C1064.32 899.086 1085.09 913.571 1101.4 943.286C1118.46 972.257 1126.99 1009.77 1126.99 1055.83C1126.99 1101.89 1118.83 1140.89 1102.52 1172.83C1086.94 1204.77 1061.35 1221.11 1025.75 1221.86C1013.88 1221.86 1004.98 1220.37 999.049 1217.4L993.486 1234.11C1017.22 1255.66 1055.79 1266.43 1109.19 1266.43C1163.33 1266.43 1206.72 1247.11 1239.36 1208.49C1271.99 1169.86 1288.31 1119.34 1288.31 1056.94C1288.31 994.543 1271.25 942.543 1237.13 900.943C1203.02 858.6 1156.66 837.429 1098.07 837.429C1026.86 837.429 978.652 864.543 953.434 918.771V748.286H1349.5Z" fill="#2C7768"/>
</g>
<defs>
<clipPath id="clip0_2011_3260">
<rect width="1350" height="1350" fill="white"/>
</clipPath>
</defs>
</svg>
